<?xml version="1.0" encoding="UTF-8"?>
<svg width="261px" height="51px" viewBox="0 0 261 51" version="1.1" xmlns="http://www.w3.org/2000/svg" xmlns:xlink="http://www.w3.org/1999/xlink">
    <!-- Generator: Sketch 52.3 (67297) - http://www.bohemiancoding.com/sketch -->
    <title>Group 53</title>
    <desc>Created with Sketch.</desc>
    <defs>
        <polygon id="path-1" points="0.07415 0.204 30.88515 0.204 30.88515 29.44465 0.07415 29.44465"></polygon>
        <polygon id="path-3" points="0.1037 0.204 35.4442 0.204 35.4442 29.44455 0.1037 29.44455"></polygon>
        <polygon id="path-5" points="0.3207 0.204 24.0902 0.204 24.0902 29.44465 0.3207 29.44465"></polygon>
        <polygon id="path-7" points="0.24915 0.204 24.01815 0.204 24.01815 29.44465 0.24915 29.44465"></polygon>
        <polygon id="path-9" points="0.17765 0.204 32.42315 0.204 32.42315 29.4445 0.17765 29.4445"></polygon>
        <polygon id="path-11" points="0.30195 0.204 47.58945 0.204 47.58945 50.49985 0.30195 50.49985"></polygon>
        <polygon id="path-13" points="0.2783 0.204 58.5968 0.204 58.5968 50.49975 0.2783 50.49975"></polygon>
        <polygon id="path-15" points="0 0.4134 147.7969 0.4134 147.7969 15.9769 0 15.9769"></polygon>
    </defs>
    <g id="Symbols" stroke="none" stroke-width="1" fill="none" fill-rule="evenodd">
        <g id="footer" transform="translate(-125.000000, -55.000000)">
            <g id="Group-15">
                <g id="Group-53" transform="translate(125.000000, 55.000000)">
                    <g id="Group-3" transform="translate(5.000000, 0.296000)">
                        <mask id="mask-2" fill="white">
                            <use xlink:href="#path-1"></use>
                        </mask>
                        <g id="Clip-2"></g>
                        <path d="M25.72765,29.44465 L6.93665,29.44465 C6.12915,29.44465 5.32165,29.22765 4.51465,28.79415 C3.70715,28.36165 2.97465,27.79265 2.31665,27.08965 C1.65915,26.38765 1.12115,25.59565 0.70265,24.71315 C0.28365,23.83115 0.07415,22.94165 0.07415,22.04465 L0.07415,21.59615 C0.07415,21.32715 0.08965,21.17815 0.11965,21.14815 L2.36215,8.50115 C2.54165,7.54415 2.98265,6.57265 3.68465,5.58565 C4.38665,4.59865 5.21715,3.70965 6.17365,2.91715 C7.13065,2.12515 8.13965,1.47565 9.20165,0.96665 C10.26215,0.45865 11.22665,0.20365 12.09365,0.20365 L30.88515,0.20365 L29.31515,8.99365 L16.31015,8.99365 C15.62165,8.99365 15.03815,9.10615 14.56115,9.33015 C14.08165,9.55415 13.68615,9.85365 13.37165,10.22715 C13.05815,10.60165 12.81115,11.05015 12.63265,11.57265 C12.45265,12.09615 12.31865,12.65665 12.22865,13.25465 L11.60115,16.70765 C11.51115,17.21665 11.46615,17.66465 11.46615,18.05315 C11.46615,18.83115 11.66015,19.45915 12.04915,19.93715 C12.43715,20.41515 13.18515,20.65465 14.29165,20.65465 L27.29765,20.65465 L25.72765,29.44465 Z" id="Fill-1" fill="#FFFFFF" mask="url(#mask-2)"></path>
                    </g>
                    <g id="Group-6" transform="translate(33.000000, 0.296000)">
                        <mask id="mask-4" fill="white">
                            <use xlink:href="#path-3"></use>
                        </mask>
                        <g id="Clip-5"></g>
                        <path d="M17.1012,17.15605 L23.2457,17.15605 L21.8097,7.91755 L17.1012,17.15605 Z M24.2322,24.95955 L13.3792,24.95955 L11.0472,29.44455 L0.1037,29.44455 L14.4107,0.20355 L31.4527,0.20355 L35.4442,29.44455 L24.9497,29.44455 L24.2322,24.95955 Z" id="Fill-4" fill="#FFFFFF" mask="url(#mask-4)"></path>
                    </g>
                    <g id="Group-9" transform="translate(70.500000, 0.296000)">
                        <mask id="mask-6" fill="white">
                            <use xlink:href="#path-5"></use>
                        </mask>
                        <g id="Clip-8"></g>
                        <polygon id="Fill-7" fill="#FFFFFF" mask="url(#mask-6)" points="0.3207 29.44465 5.4777 0.20365 16.1072 0.20365 12.5192 20.65465 24.0902 20.65465 22.5202 29.44465"></polygon>
                    </g>
                    <g id="Group-12" transform="translate(96.000000, 0.296000)">
                        <mask id="mask-8" fill="white">
                            <use xlink:href="#path-7"></use>
                        </mask>
                        <g id="Clip-11"></g>
                        <polygon id="Fill-10" fill="#FFFFFF" mask="url(#mask-8)" points="0.24915 29.44465 5.40615 0.20365 16.03565 0.20365 12.44765 20.65465 24.01815 20.65465 22.44865 29.44465"></polygon>
                    </g>
                    <g id="Group-15" transform="translate(121.500000, 0.296000)">
                        <mask id="mask-10" fill="white">
                            <use xlink:href="#path-9"></use>
                        </mask>
                        <g id="Clip-14"></g>
                        <polygon id="Fill-13" fill="#FFFFFF" mask="url(#mask-10)" points="27.93815 18.681 12.69015 18.681 12.37615 20.6545 28.83515 20.6545 27.26565 29.4445 0.17765 29.4445 5.33465 0.2035 32.42315 0.2035 30.85365 8.9935 14.39365 8.9935 14.08015 10.9675 29.32865 10.9675"></polygon>
                    </g>
                    <g id="Group-18" transform="translate(156.000000, 0.296000)">
                        <mask id="mask-12" fill="white">
                            <use xlink:href="#path-11"></use>
                        </mask>
                        <g id="Clip-17"></g>
                        <path d="M18.50695,50.49985 L0.30195,50.49985 L2.07595,40.24035 C2.48745,37.77135 3.36145,35.48435 4.69945,33.37485 C6.03595,31.26635 7.66945,29.22185 9.59795,27.24185 C11.52645,25.26235 13.62095,23.30735 15.88445,21.37885 C18.14745,19.45035 20.40945,17.43235 22.67295,15.32285 L0.84245,15.32285 L3.54195,0.20385 L47.58945,0.20385 L45.58345,11.77485 C45.47995,12.18735 45.39195,12.57335 45.31445,12.93235 C45.23745,13.29285 45.09495,13.67785 44.88995,14.08985 C43.96395,16.09535 42.76795,17.97285 41.30295,19.72085 C39.83645,21.46935 38.21695,23.16635 36.44295,24.81235 C34.66895,26.45835 32.80345,28.06485 30.85045,29.63385 C28.89445,31.20235 26.96595,32.78435 25.06495,34.37785 C24.24095,35.09785 23.48295,36.04935 22.78845,37.23185 C22.09495,38.41585 21.47695,39.72635 20.93745,41.16635 C20.39695,42.60585 19.92145,44.13585 19.50995,45.75585 C19.09845,47.37535 18.76445,48.95735 18.50695,50.49985" id="Fill-16" fill="#FFFFFF" mask="url(#mask-12)"></path>
                    </g>
                    <g id="Group-21" transform="translate(202.000000, 0.296000)">
                        <mask id="mask-14" fill="white">
                            <use xlink:href="#path-13"></use>
                        </mask>
                        <g id="Clip-20"></g>
                        <path d="M20.1808,28.12875 C20.0263,29.05475 19.9493,29.95475 19.9493,30.82825 C19.9493,32.16675 20.2703,33.25925 20.9133,34.10725 C21.5558,34.95575 22.8288,35.38075 24.7323,35.38075 L30.6718,35.38075 C31.9063,35.38075 32.9348,35.18775 33.7578,34.80175 C34.5798,34.41625 35.2613,33.88925 35.8018,33.22075 C36.3413,32.55275 36.7533,31.78175 37.0368,30.90575 C37.3178,30.03225 37.5378,29.10625 37.6918,28.12875 L38.8493,21.72625 C38.8993,21.52125 38.9378,21.34025 38.9648,21.18575 C38.9893,21.03275 39.0028,20.87825 39.0028,20.72375 L39.0028,19.72075 C39.0028,18.38375 38.6563,17.31775 37.9623,16.51925 C37.2673,15.72275 35.9953,15.32325 34.1438,15.32325 L28.2038,15.32325 C25.8893,15.32325 24.2433,15.94125 23.2668,17.17525 C22.2893,18.40925 21.6463,19.92675 21.3378,21.72625 L20.1808,28.12875 Z M58.4423,14.47475 L54.6628,36.22875 C54.3548,37.87525 53.5948,39.54575 52.3878,41.24375 C51.1783,42.94025 49.7513,44.47075 48.1063,45.83325 C46.4598,47.19675 44.7233,48.31425 42.8988,49.18825 C41.0723,50.06375 39.4143,50.49975 37.9233,50.49975 L12.0808,50.49975 C10.6923,50.49975 9.3038,50.12725 7.9158,49.38125 C6.5263,48.63675 5.2658,47.65925 4.1358,46.45025 C3.0038,45.24275 2.0783,43.87925 1.3588,42.36125 C0.6373,40.84525 0.2783,39.31475 0.2783,37.77125 C0.2783,37.51525 0.2903,37.25825 0.3173,37.00025 C0.3418,36.74325 0.3803,36.48725 0.4323,36.22875 L4.2128,14.47475 C4.5213,12.82975 5.2788,11.15825 6.4878,9.46125 C7.6963,7.76375 9.1228,6.23425 10.7698,4.87075 C12.4148,3.50925 14.1503,2.39025 15.9763,1.51525 C17.8013,0.64175 19.4608,0.20375 20.9518,0.20375 L46.7943,0.20375 C48.1313,0.20375 49.4948,0.57775 50.8828,1.32225 C52.2718,2.06825 53.5443,3.04575 54.7013,4.25375 C55.8583,5.46275 56.7963,6.82575 57.5168,8.34275 C58.2363,9.85975 58.5968,11.38975 58.5968,12.93225 C58.5968,13.19025 58.5838,13.44725 58.5583,13.70325 C58.5318,13.96175 58.4933,14.21875 58.4423,14.47475 Z" id="Fill-19" fill="#FFFFFF" mask="url(#mask-14)"></path>
                    </g>
                    <g id="Group-24" transform="translate(0.000000, 34.796000)">
                        <mask id="mask-16" fill="white">
                            <use xlink:href="#path-15"></use>
                        </mask>
                        <g id="Clip-23"></g>
                        <polygon id="Fill-22" fill="#3a8433" mask="url(#mask-16)" points="-0.0001 15.9769 145.0314 15.9769 147.7969 0.4134 2.7654 0.4134"></polygon>
                    </g>
                    <path d="M17.12,38.97355 L16.4485,42.78255 L17.2845,42.78255 C17.847,42.78255 18.198,42.52555 18.3395,41.72155 L18.637,40.03455 C18.7785,39.23105 18.5185,38.97355 17.956,38.97355 L17.12,38.97355 Z M20.3855,40.14705 L20.1275,41.60905 C19.81,43.40905 18.7695,44.38955 17.001,44.38955 L16.165,44.38955 L15.4195,48.61605 L13.6515,48.61605 L15.6355,37.36655 L18.2395,37.36655 C20.008,37.36655 20.703,38.34655 20.3855,40.14705 Z" id="Fill-25" fill="#1D1D1B"></path>
                    <path d="M23.0763,46.02875 C22.9343,46.83225 23.2338,47.13775 23.7968,47.13775 C24.3593,47.13775 24.7668,46.83225 24.9088,46.02875 L25.9798,39.95425 C26.1213,39.15025 25.8218,38.84525 25.2593,38.84525 C24.6963,38.84525 24.2888,39.15025 24.1473,39.95425 L23.0763,46.02875 Z M22.3593,40.06675 C22.6768,38.26625 23.8063,37.23775 25.5428,37.23775 C27.2788,37.23775 28.0453,38.26625 27.7283,40.06675 L26.6968,45.91625 C26.3793,47.71625 25.2498,48.74475 23.5138,48.74475 C21.7773,48.74475 21.0108,47.71625 21.3278,45.91625 L22.3593,40.06675 Z" id="Fill-27" fill="#1D1D1B"></path>
                    <path d="M32.1151,38.97355 L31.5056,42.42905 L32.1971,42.42905 C32.8561,42.42905 33.3091,42.13955 33.4681,41.23905 L33.6636,40.13055 C33.8051,39.32705 33.5941,38.97355 32.9671,38.97355 L32.1151,38.97355 Z M32.3441,48.61605 C32.2986,48.32705 32.2656,48.15055 32.4271,47.23405 L32.7391,45.46605 C32.9231,44.42155 32.6366,44.03605 31.8331,44.03605 L31.2221,44.03605 L30.4146,48.61605 L28.6466,48.61605 L30.6306,37.36655 L33.2991,37.36655 C35.1316,37.36655 35.7686,38.21805 35.4626,39.95405 L35.3066,40.83805 C35.1031,41.99505 34.6001,42.75055 33.7471,43.12005 C34.5661,43.48905 34.7051,44.34105 34.4986,45.51455 L34.1921,47.25055 C34.0961,47.79655 34.0411,48.19855 34.1441,48.61605 L32.3441,48.61605 Z" id="Fill-29" fill="#1D1D1B"></path>
                    <path d="M42.6393,44.00385 L42.2823,46.02885 C42.1403,46.83235 42.4428,47.12185 43.0053,47.12185 C43.5683,47.12185 43.9728,46.83235 44.1148,46.02885 L44.4718,44.00385 C44.6133,43.20085 44.3138,42.89485 43.7508,42.89485 C43.1883,42.89485 42.7808,43.20085 42.6393,44.00385 Z M41.5478,40.16285 C41.8823,38.26585 42.9318,37.23785 44.7643,37.23785 C46.5008,37.23785 47.2193,38.26585 46.9018,40.06685 L46.8508,40.35535 L45.1798,40.35535 L45.2503,39.95385 C45.3918,39.15035 45.0918,38.84535 44.5293,38.84535 C43.9023,38.84535 43.4948,39.15035 43.3053,40.22685 L42.9423,42.28435 C43.3608,41.64135 43.9703,41.28785 44.7578,41.28785 C46.0603,41.28785 46.5573,42.20385 46.2653,43.85935 L45.9028,45.91635 C45.5853,47.71635 44.4558,48.74435 42.7193,48.74435 C40.9833,48.74435 40.2163,47.71635 40.5338,45.91635 L41.5478,40.16285 Z" id="Fill-31" fill="#1D1D1B"></path>
                    <path d="M50.0524,44.9843 L49.8684,46.0288 C49.7264,46.8323 50.0289,47.1218 50.5919,47.1218 C51.1544,47.1218 51.5589,46.8323 51.7009,46.0288 L52.1369,43.5538 C52.2789,42.7503 51.9794,42.4448 51.4169,42.4448 C50.8539,42.4448 50.4464,42.7503 50.3044,43.5538 L50.2449,43.8913 L48.5734,43.8913 L50.0454,37.3668 L54.7074,37.3668 L54.4239,38.9738 L51.3534,38.9738 L50.7359,41.6573 C51.1504,41.1268 51.7159,40.8378 52.4229,40.8378 C53.7254,40.8378 54.2229,41.7538 53.9314,43.4093 L53.4894,45.9163 C53.1719,47.7163 52.0899,48.7448 50.3539,48.7448 C48.6179,48.7448 47.8989,47.7163 48.2164,45.9163 L48.3804,44.9843 L50.0524,44.9843 Z" id="Fill-33" fill="#1D1D1B"></path>
                    <polygon id="Fill-35" fill="#1D1D1B" points="61.5607 44.88765 60.6527 37.36665 62.5012 37.36665 62.9472 42.49315 65.2017 37.36665 66.8892 37.36665 63.3287 44.88765 62.6712 48.61615 60.9032 48.61615"></polygon>
                    <path d="M73.1437,44.00385 L72.7867,46.02885 C72.6447,46.83235 72.9472,47.12185 73.5097,47.12185 C74.0727,47.12185 74.4772,46.83235 74.6192,46.02885 L74.9762,44.00385 C75.1177,43.20085 74.8182,42.89485 74.2552,42.89485 C73.6927,42.89485 73.2852,43.20085 73.1437,44.00385 Z M72.0522,40.16285 C72.3867,38.26585 73.4362,37.23785 75.2687,37.23785 C77.0052,37.23785 77.7237,38.26585 77.4062,40.06685 L77.3552,40.35535 L75.6842,40.35535 L75.7547,39.95385 C75.8962,39.15035 75.5962,38.84535 75.0337,38.84535 C74.4067,38.84535 73.9992,39.15035 73.8097,40.22685 L73.4467,42.28435 C73.8652,41.64135 74.4747,41.28785 75.2622,41.28785 C76.5647,41.28785 77.0617,42.20385 76.7697,43.85935 L76.4072,45.91635 C76.0897,47.71635 74.9602,48.74435 73.2237,48.74435 C71.4877,48.74435 70.7207,47.71635 71.0382,45.91635 L72.0522,40.16285 Z" id="Fill-37" fill="#1D1D1B"></path>
                    <polygon id="Fill-39" fill="#1D1D1B" points="85.5011 37.36665 85.2291 38.90915 80.9126 48.61615 79.1446 48.61615 83.4331 38.97365 79.9126 38.97365 80.1961 37.36665"></polygon>
                    <path d="M95.61925,44.4218 L95.35575,45.9163 C95.03825,47.7163 93.95675,48.7448 92.22075,48.7448 C90.48425,48.7448 89.76575,47.7163 90.08325,45.9163 L91.11475,40.0668 C91.43225,38.2658 92.51375,37.2378 94.24975,37.2378 C95.98575,37.2378 96.70475,38.2658 96.38725,40.0668 L96.19425,41.1593 L94.52275,41.1593 L94.73525,39.9538 C94.87675,39.1503 94.57725,38.8453 94.01475,38.8453 C93.45175,38.8453 93.04425,39.1503 92.90275,39.9538 L91.83175,46.0288 C91.68975,46.8323 91.99225,47.1218 92.55525,47.1218 C93.11775,47.1218 93.52225,46.8323 93.66425,46.0288 L93.94725,44.4218 L95.61925,44.4218 Z" id="Fill-41" fill="#1D1D1B"></path>
                    <polygon id="Fill-43" fill="#1D1D1B" points="100.15735 42.10735 102.58435 42.10735 102.30135 43.71435 99.87385 43.71435 99.29285 47.00935 102.34685 47.00935 102.06385 48.61635 97.24135 48.61635 99.22535 37.36685 104.04735 37.36685 103.76385 38.97335 100.70985 38.97335"></polygon>
                    <polygon id="Fill-45" fill="#1D1D1B" points="107.45375 40.4682 106.01675 48.6162 104.42525 48.6162 106.40925 37.3667 108.62775 37.3667 109.25625 44.1002 110.44375 37.3667 112.01975 37.3667 110.03575 48.6162 108.21925 48.6162"></polygon>
                    <polygon id="Fill-47" fill="#1D1D1B" points="114.0587 37.36665 119.5247 37.36665 119.2412 38.97365 117.3922 38.97365 115.6922 48.61615 113.9232 48.61615 115.6237 38.97365 113.7752 38.97365"></polygon>
                    <path d="M123.0653,38.97355 L122.4558,42.42905 L123.1473,42.42905 C123.8063,42.42905 124.2593,42.13955 124.4183,41.23905 L124.6138,40.13055 C124.7553,39.32705 124.5443,38.97355 123.9173,38.97355 L123.0653,38.97355 Z M123.2943,48.61605 C123.2488,48.32705 123.2158,48.15055 123.3773,47.23405 L123.6893,45.46605 C123.8733,44.42155 123.5868,44.03605 122.7833,44.03605 L122.1723,44.03605 L121.3648,48.61605 L119.5968,48.61605 L121.5808,37.36655 L124.2493,37.36655 C126.0818,37.36655 126.7188,38.21805 126.4128,39.95405 L126.2568,40.83805 C126.0533,41.99505 125.5503,42.75055 124.6973,43.12005 C125.5163,43.48905 125.6553,44.34105 125.4488,45.51455 L125.1423,47.25055 C125.0463,47.79655 124.9913,48.19855 125.0943,48.61605 L123.2943,48.61605 Z" id="Fill-49" fill="#1D1D1B"></path>
                    <path d="M129.4235,46.02875 C129.282,46.83225 129.581,47.13775 130.144,47.13775 C130.7065,47.13775 131.114,46.83225 131.256,46.02875 L132.327,39.95425 C132.469,39.15025 132.169,38.84525 131.6065,38.84525 C131.0435,38.84525 130.6365,39.15025 130.4945,39.95425 L129.4235,46.02875 Z M128.7065,40.06675 C129.024,38.26625 130.1535,37.23775 131.89,37.23775 C133.6255,37.23775 134.3925,38.26625 134.0755,40.06675 L133.0435,45.91625 C132.726,47.71625 131.597,48.74475 129.861,48.74475 C128.1245,48.74475 127.358,47.71625 127.675,45.91625 L128.7065,40.06675 Z" id="Fill-51" fill="#1D1D1B"></path>
                </g>
            </g>
        </g>
    </g>
</svg>