<?xml version="1.0" encoding="UTF-8"?>
<svg width="123px" height="69px" viewBox="0 0 123 69" version="1.1" xmlns="http://www.w3.org/2000/svg" xmlns:xlink="http://www.w3.org/1999/xlink">
    <!-- Generator: Sketch 52.3 (67297) - http://www.bohemiancoding.com/sketch -->
    <title>Shape</title>
    <desc>Created with Sketch.</desc>
    <g id="Sitio-Web-V3.0" stroke="none" stroke-width="1" fill="none" fill-rule="evenodd">
        <g id="0.0-Home2-Copy" transform="translate(-244.000000, -2231.000000)" fill="#FFDD00" fill-rule="nonzero">
            <g id="bharath-g-s-aLGiPJ4XRO4-unsplash-Copy-2" transform="translate(0.000000, 2166.000000)">
                <g id="Group-6" transform="translate(213.000000, 65.000000)">
                    <g id="Group-5">
                        <g id="46046" transform="translate(31.000000, 0.000000)">
                            <path d="M45.3528041,48.1876043 C39.7030035,48.1876043 35.1372031,52.7696047 35.1372031,58.4196052 C35.1372031,64.0528057 39.7030035,68.6352061 45.3528041,68.6352061 C51.0026046,68.6352061 55.568405,64.0528057 55.568405,58.4196052 C55.568205,52.7696047 51.0026046,48.1876043 45.3528041,48.1876043 Z M45.3528041,63.5274057 C42.5278038,63.5274057 40.2448036,61.2278055 40.2448036,58.4192052 C40.2448036,55.594605 42.5278038,53.3114048 45.3528041,53.3114048 C48.1776043,53.3114048 50.4606045,55.594605 50.4606045,58.4192052 C50.4604045,61.2278055 48.1776043,63.5274057 45.3528041,63.5274057 Z M122.400011,40.6298036 L122.400011,51.5380046 C122.400011,54.2590049 120.194211,56.465005 117.472811,56.465005 L112.20081,56.465005 C111.24821,49.9282045 105.615009,44.902604 98.8154088,44.902604 C92.0326082,44.902604 86.3990077,49.9284045 85.4464076,56.465005 L58.7250053,56.465005 C57.7724052,49.9282045 52.1390047,44.902604 45.3560041,44.902604 C38.5730034,44.902604 32.9396029,49.9284045 31.9872029,56.465005 L25.3848023,56.465005 C22.663602,56.465005 20.4578018,54.2592049 20.4578018,51.5380046 L20.4578018,40.6298036 L122.400011,40.6298036 Z M98.8286088,48.1876043 C93.1788083,48.1876043 88.5966079,52.7696047 88.5966079,58.4196052 C88.5966079,64.0528057 93.1790083,68.6352061 98.8286088,68.6352061 C104.461809,68.6352061 109.04401,64.0528057 109.04401,58.4196052 C109.04401,52.7696047 104.461809,48.1876043 98.8286088,48.1876043 Z M98.8286088,63.5274057 C96.0036086,63.5274057 93.7208084,61.2278055 93.7208084,58.4192052 C93.7208084,55.594605 96.0036086,53.3114048 98.8286088,53.3114048 C101.637009,53.3114048 103.936409,55.594605 103.936409,58.4192052 C103.936409,61.2278055 101.637009,63.5274057 98.8286088,63.5274057 Z M120.458611,29.6450027 L101.095209,10.4948009 C99.8634089,9.27940083 98.2046088,8.58960077 96.4800086,8.58960077 L86.7080078,8.58960077 L86.7080078,4.92700044 C86.7080078,2.2008002 84.5072076,0 81.7810073,0 L25.3814023,0 C22.671402,0 20.4544018,2.2010002 20.4544018,4.92700044 L20.4544018,5.69900051 L0.460000041,8.00340072 L35.8892032,12.6170011 L0,16.1822014 L35.7628032,21.2668019 L0,24.3676022 L20.4556018,28.2256025 L20.4542018,37.9062034 L122.396611,37.9062034 L122.396611,34.3092031 C122.396611,32.5518029 121.690411,30.8768028 120.458611,29.6450027 Z M112.01681,30.2854027 L93.2774083,30.2854027 C92.8504083,30.2854027 92.5054083,29.9406027 92.5054083,29.5136026 L92.5054083,15.0442013 C92.5054083,14.6172013 92.8504083,14.2722013 93.2774083,14.2722013 L96.8414087,14.2722013 C97.0384087,14.2722013 97.2356087,14.3544013 97.3834087,14.4858013 L112.54261,28.9552026 C113.05141,29.4314026 112.70641,30.2854027 112.01681,30.2854027 Z" id="Shape"></path>
                        </g>
                    </g>
                </g>
            </g>
        </g>
    </g>
</svg>