<svg width="129px" height="65px" viewBox="0 0 129 65" version="1.1" xmlns="http://www.w3.org/2000/svg" xmlns:xlink="http://www.w3.org/1999/xlink">
    <g id="Symbols" stroke="none" stroke-width="1" fill="none" fill-rule="evenodd">
        <g id="+-40-marcas" transform="translate(-20.000000, -8.000000)" fill="#3a8433">
            <path d="M67.6875,19.81 L67.6875,25.435 L60.4875,25.435 L60.4875,32.41 L53.1525,32.41 L53.1525,25.435 L45.9525,25.435 L45.9525,19.81 L53.1525,19.81 L53.1525,12.835 L60.4875,12.835 L60.4875,19.81 L67.6875,19.81 Z M100.1775,26.11 L100.1775,31.825 L97.1175,31.825 L97.1175,37 L89.7375,37 L89.7375,31.825 L77.8125,31.825 L77.8125,24.85 L88.6575,8.11 L96.5775,8.11 L84.9675,26.11 L89.7375,26.11 L89.7375,20.395 L97.1175,20.395 L97.1175,26.11 L100.1775,26.11 Z M113.1825,30.385 L113.1825,14.725 C113.1825,14.0649967 112.807504,13.735 112.0575,13.735 L110.8425,13.735 C110.092496,13.735 109.7175,14.0649967 109.7175,14.725 L109.7175,30.385 C109.7175,31.0450033 110.092496,31.375 110.8425,31.375 L112.0575,31.375 C112.807504,31.375 113.1825,31.0450033 113.1825,30.385 Z M121.0575,13.69 L121.0575,31.42 C121.0575,35.1400186 118.852522,37 114.4425,37 L108.4575,37 C104.047478,37 101.8425,35.1400186 101.8425,31.42 L101.8425,13.69 C101.8425,9.9699814 104.047478,8.11 108.4575,8.11 L114.4425,8.11 C118.852522,8.11 121.0575,9.9699814 121.0575,13.69 Z M42.645,50.545 L43.455,50.545 C47.44502,50.545 49.44,52.4049814 49.44,56.125 L49.44,73 L41.79,73 L41.79,57.16 C41.79,56.4999967 41.4150038,56.17 40.665,56.17 L39.9,56.17 C39.089996,56.17 38.685,56.6199955 38.685,57.52 L38.685,73 L31.035,73 L31.035,57.16 C31.035,56.4999967 30.6600038,56.17 29.91,56.17 L29.145,56.17 C28.334996,56.17 27.93,56.6199955 27.93,57.52 L27.93,73 L20.28,73 L20.28,50.545 L27.795,50.545 L27.795,53.425 C28.2150021,51.5049904 29.5799885,50.545 31.89,50.545 L32.7,50.545 C35.490014,50.545 37.3199957,51.4899906 38.19,53.38 C38.4300012,52.5099957 38.954996,51.8200025 39.765,51.31 C40.5750041,50.7999975 41.5349944,50.545 42.645,50.545 Z M63.255,50.545 L70.77,50.545 L70.77,73 L63.12,73 L63.12,70.57 C62.5499971,72.1900081 61.2300104,73 59.16,73 L58.35,73 C54.3599801,73 52.365,71.1400186 52.365,67.42 L52.365,56.125 C52.365,52.4049814 54.3599801,50.545 58.35,50.545 L59.16,50.545 C61.4700115,50.545 62.8349979,51.5049904 63.255,53.425 L63.255,50.545 Z M61.14,67.375 L61.905,67.375 C62.7150041,67.375 63.12,66.9250045 63.12,66.025 L63.12,57.52 C63.12,56.6199955 62.7150041,56.17 61.905,56.17 L61.14,56.17 C60.3899962,56.17 60.015,56.4999967 60.015,57.16 L60.015,66.385 C60.015,67.0450033 60.3899962,67.375 61.14,67.375 Z M86.745,50.32 L87.42,50.32 L87.42,56.98 L84.855,56.98 C82.9649905,56.98 82.02,57.9999898 82.02,60.04 L82.02,73 L74.37,73 L74.37,50.545 L81.885,50.545 L81.885,54.01 C82.1250012,52.8699943 82.6649958,51.9700033 83.505,51.31 C84.3450042,50.6499967 85.4249934,50.32 86.745,50.32 Z M107.04,59.23 L99.66,59.23 L99.66,57.16 C99.66,56.4999967 99.2850037,56.17 98.535,56.17 L97.77,56.17 C97.0199962,56.17 96.645,56.4999967 96.645,57.16 L96.645,66.385 C96.645,67.0450033 97.0199962,67.375 97.77,67.375 L98.535,67.375 C99.2850037,67.375 99.66,67.0450033 99.66,66.385 L99.66,64.315 L107.04,64.315 L107.04,67.42 C107.04,71.1400186 104.835022,73 100.425,73 L95.61,73 C91.1999779,73 88.995,71.1400186 88.995,67.42 L88.995,56.125 C88.995,52.4049814 91.1999779,50.545 95.61,50.545 L100.425,50.545 C104.835022,50.545 107.04,52.4049814 107.04,56.125 L107.04,59.23 Z M120.18,50.545 L127.695,50.545 L127.695,73 L120.045,73 L120.045,70.57 C119.474997,72.1900081 118.15501,73 116.085,73 L115.275,73 C111.28498,73 109.29,71.1400186 109.29,67.42 L109.29,56.125 C109.29,52.4049814 111.28498,50.545 115.275,50.545 L116.085,50.545 C118.395012,50.545 119.759998,51.5049904 120.18,53.425 L120.18,50.545 Z M118.065,67.375 L118.83,67.375 C119.640004,67.375 120.045,66.9250045 120.045,66.025 L120.045,57.52 C120.045,56.6199955 119.640004,56.17 118.83,56.17 L118.065,56.17 C117.314996,56.17 116.94,56.4999967 116.94,57.16 L116.94,66.385 C116.94,67.0450033 117.314996,67.375 118.065,67.375 Z M140.97,67.06 L140.97,65.26 C140.97,64.5999967 140.595004,64.27 139.845,64.27 L137.1,64.27 C132.779978,64.27 130.62,62.4250184 130.62,58.735 L130.62,56.125 C130.62,52.4049814 132.824978,50.545 137.235,50.545 L141.42,50.545 C145.830022,50.545 148.035,52.4049814 148.035,56.125 L148.035,58.015 L140.745,58.015 L140.745,56.485 C140.745,55.8249967 140.370004,55.495 139.62,55.495 L139.17,55.495 C138.419996,55.495 138.045,55.8249967 138.045,56.485 L138.045,58.465 C138.045,59.1250033 138.419996,59.455 139.17,59.455 L141.915,59.455 C144.225012,59.455 145.882495,59.9274953 146.8875,60.8725 C147.892505,61.8175047 148.395,63.1749911 148.395,64.945 L148.395,67.42 C148.395,71.1400186 146.190022,73 141.78,73 L137.37,73 C132.959978,73 130.755,71.1400186 130.755,67.42 L130.755,65.575 L138.18,65.575 L138.18,67.06 C138.18,67.7200033 138.554996,68.05 139.305,68.05 L139.845,68.05 C140.595004,68.05 140.97,67.7200033 140.97,67.06 Z"></path>
        </g>
    </g>
</svg>