<?xml version="1.0" encoding="UTF-8"?>
<svg width="82px" height="75px" viewBox="0 0 82 75" version="1.1" xmlns="http://www.w3.org/2000/svg" xmlns:xlink="http://www.w3.org/1999/xlink">
    <!-- Generator: Sketch 52.3 (67297) - http://www.bohemiancoding.com/sketch -->
    <title>539178</title>
    <desc>Created with Sketch.</desc>
    <g id="Sitio-Web-V3.0" stroke="none" stroke-width="1" fill="none" fill-rule="evenodd">
        <g id="0.0-Home2-Copy" transform="translate(-922.000000, -2218.000000)" fill="#FFDD00" fill-rule="nonzero">
            <g id="bharath-g-s-aLGiPJ4XRO4-unsplash-Copy-2" transform="translate(0.000000, 2166.000000)">
                <g id="Group-6" transform="translate(885.000000, 52.000000)">
                    <g id="Group-2">
                        <g id="539178" transform="translate(37.000000, 0.000000)">
                            <path d="M75.9175955,0.00975999942 L6.00239964,0.00975999942 C2.69263984,0.00975999942 0,2.70255984 0,6.01199964 L0,45.3316773 L0,50.198397 L0,57.3505566 C0,60.6601564 2.69263984,63.3529562 6.00239964,63.3529562 L29.1463983,63.3529562 L28.2291183,69.6835158 L21.9795187,69.6835158 L21.9795187,74.5502356 L27.5239984,74.5502356 L54.3958368,74.5502356 L59.9403164,74.5502356 L59.9403164,69.6835158 L53.6907168,69.6835158 L52.7734369,63.3529562 L75.9174355,63.3529562 C79.2271953,63.3529562 81.9198351,60.6601564 81.9198351,57.3505566 L81.9198351,50.198397 L81.9198351,45.3316773 L81.9198351,6.01199964 C81.9199951,2.70255984 79.2273553,0.00975999942 75.9175955,0.00975999942 Z M44.3116774,56.7756766 L37.6081578,56.7756766 L37.6081578,51.9089569 L44.3116774,51.9089569 L44.3116774,56.7756766 Z M77.0532754,45.3316773 L4.86671971,45.3316773 L4.86671971,6.01199964 C4.86671971,5.38591968 5.37631968,4.87647971 6.00223964,4.87647971 L75.9175955,4.87647971 C76.5436754,4.87647971 77.0531154,5.38607968 77.0531154,6.01199964 L77.0532754,45.3316773 Z" id="Shape"></path>
                            <rect id="Rectangle" x="38.9113577" y="8.61519949" width="4.86671971" height="7.30175956"></rect>
                            <rect id="Rectangle" transform="translate(31.451283, 14.262280) rotate(-30.000728) translate(-31.451283, -14.262280) " x="29.0179771" y="10.6115608" width="4.86661264" height="7.30143893"></rect>
                            <rect id="Rectangle" transform="translate(51.238230, 14.263649) rotate(-59.999272) translate(-51.238230, -14.263649) " x="47.5875103" y="11.8303429" width="7.30143893" height="4.86661264"></rect>
                            <path d="M22.7783986,20.7964788 L27.0142384,41.6591975 L55.6764767,41.6591975 L59.9123164,20.7964788 L22.7783986,20.7964788 Z M28.7324783,25.6633585 L33.874558,25.6633585 L34.086398,28.7943983 L29.3683182,28.7943983 L28.7324783,25.6633585 Z M30.9921582,36.7923178 L30.3563182,33.661118 L34.4155179,33.661118 L34.6275179,36.7923178 L30.9921582,36.7923178 Z M43.1851174,36.7924778 L39.5057576,36.7924778 L39.2939177,33.661278 L43.3971174,33.661278 L43.1851174,36.7924778 Z M43.7265574,28.7943983 L38.9644777,28.7943983 L38.7526377,25.6633585 L43.9385574,25.6633585 L43.7265574,28.7943983 Z M51.6985569,36.7923178 L48.0628771,36.7923178 L48.2748771,33.661118 L52.3342369,33.661118 L51.6985569,36.7923178 Z M53.3223968,28.7943983 L48.6043171,28.7943983 L48.8161571,25.6633585 L53.9582368,25.6633585 L53.3223968,28.7943983 Z" id="Shape"></path>
                        </g>
                    </g>
                </g>
            </g>
        </g>
    </g>
</svg>