<?xml version="1.0" encoding="UTF-8"?>
<svg width="90px" height="87px" viewBox="0 0 90 87" version="1.1" xmlns="http://www.w3.org/2000/svg" xmlns:xlink="http://www.w3.org/1999/xlink">
    <!-- Generator: Sketch 52.3 (67297) - http://www.bohemiancoding.com/sketch -->
    <title>1252961</title>
    <desc>Created with Sketch.</desc>
    <g id="Sitio-Web-V3.0" stroke="none" stroke-width="1" fill="none" fill-rule="evenodd">
        <g id="0.0-Home2-Copy" transform="translate(-1242.000000, -2212.000000)" fill="#FFDD00" fill-rule="nonzero">
            <g id="bharath-g-s-aLGiPJ4XRO4-unsplash-Copy-2" transform="translate(0.000000, 2166.000000)">
                <g id="Group-6" transform="translate(1193.000000, 46.000000)">
                    <g id="Group">
                        <g id="1252961" transform="translate(49.000000, 0.000000)">
                            <path d="M52.8,62.4 C52.8,66.8179688 49.2179688,70.4 44.8,70.4 C40.3820312,70.4 36.8,66.8179688 36.8,62.4 C36.8,57.9820312 40.3820312,54.4 44.8,54.4 C49.2179688,54.4 52.8,57.9820312 52.8,62.4 Z" id="Path"></path>
                            <path d="M57.73125,78.9234376 C57.93125,78.4609376 58.3375,78.1203124 58.8273438,78.003125 L66.746875,76.1101562 L61.003125,69.2640624 C60.9726562,69.3359376 60.93125,69.4015624 60.9007812,69.471875 C60.69375,69.9445312 60.4671876,70.40625 60.2210938,70.85625 C60.1171876,71.0460938 60.0078124,71.2335938 59.9007812,71.4195312 C59.68125,71.784375 59.4515624,72.1421876 59.2046876,72.4914062 C59.0335938,72.7359376 58.8546876,72.9710938 58.6703124,73.2109376 C58.4546876,73.4851562 58.2335938,73.7507812 58.0015624,74.0109376 C57.7695312,74.271875 57.5007812,74.5601562 57.2367188,74.8242188 C57.0351562,75.0242188 56.8273438,75.2179688 56.615625,75.409375 C56.4460938,75.5695312 56.2960938,75.7296876 56.1171876,75.8796876 C55.9375,76.0304688 55.7742188,76.128125 55.6078124,76.259375 C55.5234376,76.325 55.4476562,76.4 55.3648438,76.4640624 C55.2046876,76.5804688 55.0445312,76.68125 54.8851562,76.7921876 C54.66875,76.94375 54.45625,77.1023438 54.2335938,77.2429688 C53.7710938,77.5390624 53.2960938,77.809375 52.8125,78.059375 C52.6398438,78.146875 52.4640624,78.2273438 52.2882812,78.3085938 C51.85625,78.5148438 51.415625,78.7007812 50.9695312,78.8703124 C50.8492188,78.9132812 50.734375,78.9632812 50.6140624,79.0046876 C50.00625,79.2195312 49.3867188,79.3984376 48.7585938,79.5421876 L48.74375,79.5421876 L54.4914062,86.4 L57.73125,78.9234376 Z" id="Path"></path>
                            <path d="M41.796875,76.4796876 C42.5289062,76.6335938 43.271875,76.73125 44.0195312,76.7710938 L44.0398438,76.7710938 C44.2929688,76.784375 44.5453124,76.8015624 44.8,76.8015624 C45.0546876,76.8015624 45.3070312,76.784375 45.5601562,76.7710938 L45.5804688,76.7710938 C46.3296876,76.7320312 47.0742188,76.634375 47.8078124,76.4796876 L47.9359376,76.4546876 C48.2242188,76.3921876 48.5085938,76.3132812 48.7921876,76.2335938 C48.9039062,76.2015624 49.015625,76.1710938 49.1265624,76.1359376 C49.334375,76.071875 49.5390624,75.996875 49.7421876,75.921875 C49.9453124,75.8460938 50.1070312,75.790625 50.2867188,75.7148438 C50.415625,75.6625 50.5421876,75.603125 50.6703124,75.5453124 C50.91875,75.4351562 51.1632812,75.321875 51.4046876,75.1953124 C51.4640624,75.1648438 51.521875,75.13125 51.5804688,75.0992188 C51.88125,74.9390624 52.1773438,74.7695312 52.4671876,74.5859376 L52.4867188,74.5742188 C52.80625,74.36875 53.1234376,74.1484376 53.4367188,73.9132812 C53.7679688,73.6671876 54.0765624,73.39375 54.3742188,73.1234376 C54.7359376,72.8007812 55.0820312,72.4609376 55.409375,72.1039062 C55.5359376,71.9664062 55.671875,71.8382812 55.7921876,71.6976562 C56.2375,71.171875 56.6445312,70.6148438 57.009375,70.0304688 C57.065625,69.940625 57.1132812,69.8460938 57.1695312,69.7570312 C57.5085938,69.1921876 57.8070312,68.6039062 58.0625,67.996875 C58.0867188,67.9421876 58.1117188,67.8867188 58.134375,67.8367188 C58.4171876,67.1375 58.6445312,66.4164062 58.8140624,65.68125 C58.8140624,65.6546876 58.8367188,65.6304688 58.8445312,65.603125 C60.1570312,59.83125 57.8039062,53.84375 52.9117188,50.5101562 C48.0195312,47.1773438 41.5867188,47.1773438 36.6945312,50.5101562 C31.803125,53.84375 29.4492188,59.83125 30.7617188,65.603125 C30.7617188,65.6320312 30.7859376,65.6546876 30.7921876,65.6828124 C30.9625,66.41875 31.1898438,67.1398438 31.4734376,67.8398438 C31.4945312,67.8945312 31.5203124,67.9484376 31.5421876,68 C31.7992188,68.6109376 32.0984376,69.2023438 32.4382812,69.7710938 C32.4914062,69.8609376 32.5375,69.9523438 32.5984376,70.0382812 C32.9632812,70.6242188 33.3710938,71.18125 33.8179688,71.7070312 C33.9390624,71.8492188 34.0765624,71.9804688 34.2046876,72.11875 C34.528125,72.471875 34.8695312,72.8085938 35.2273438,73.128125 C35.5328124,73.3984376 35.8367188,73.671875 36.1695312,73.9203124 C36.7671876,74.3703124 37.3984376,74.7734376 38.0578124,75.1265624 L38.1859376,75.196875 C38.4398438,75.3296876 38.7007812,75.4492188 38.9632812,75.5679688 C39.078125,75.6195312 39.19375,75.671875 39.3101562,75.728125 C39.4992188,75.80625 39.6914062,75.875 39.8828124,75.9453124 C40.075,76.015625 40.2765624,76.0898438 40.4765624,76.1523438 C40.5921876,76.1890624 40.7101562,76.2195312 40.8273438,76.253125 C41.1054688,76.3328124 41.3875,76.4125 41.671875,76.471875 L41.796875,76.4796876 Z M33.6,62.4 C33.6,56.2140624 38.6140624,51.2 44.8,51.2 C50.9859376,51.2 56,56.2140624 56,62.4 C56,68.5859376 50.9859376,73.6 44.8,73.6 C38.6171876,73.5929688 33.6070312,68.5828124 33.6,62.4 Z" id="Shape"></path>
                            <path d="M31.86875,78.9234376 L35.1085938,86.4 L40.8546876,79.5539062 L40.8382812,79.5539062 C40.2125,79.409375 39.5945312,79.2304688 38.9890624,79.0179688 C38.8640624,78.9742188 38.740625,78.921875 38.615625,78.875 C38.1789062,78.7109376 37.7492188,78.5289062 37.328125,78.328125 C37.1421876,78.2414062 36.9570312,78.1570312 36.7742188,78.0640624 C36.2945312,77.8179688 35.8304688,77.5523438 35.3757812,77.2640624 C35.1375,77.1132812 34.9101562,76.94375 34.6796876,76.784375 C34.5328124,76.6796876 34.3804688,76.5859376 34.2367188,76.4765624 C34.1570312,76.4179688 34.0898438,76.346875 34.0109376,76.2867188 C33.8382812,76.1523438 33.65625,76.0382812 33.4882812,75.8976562 C33.3203124,75.7570312 33.1523438,75.5773438 32.9789062,75.4179688 C32.7710938,75.2304688 32.5679688,75.0398438 32.3710938,74.8429688 C32.1046876,74.5773438 31.8476562,74.3046876 31.6015624,74.0257812 C31.3695312,73.7648438 31.1484376,73.4992188 30.934375,73.2257812 C30.7507812,72.9890624 30.5710938,72.7453124 30.4,72.5054688 C30.1539062,72.1546876 29.9210938,71.7960938 29.7023438,71.4304688 C29.5921876,71.2460938 29.4828124,71.0609376 29.3820312,70.871875 C29.1328124,70.4195312 28.9023438,69.9570312 28.6992188,69.4828124 C28.66875,69.4125 28.6289062,69.3484376 28.5984376,69.278125 L22.8546876,76.125 L30.7742188,78.0179688 C31.2609376,78.1320312 31.665625,78.4671876 31.86875,78.9234376 Z" id="Path"></path>
                            <path d="M89.6,60.8 L89.6,0 L0,0 L0,60.8 L27.28125,60.8 C28.0953124,51.7304688 35.6960938,44.7820312 44.8015624,44.7820312 C53.9070312,44.7820312 61.5078124,51.7304688 62.321875,60.8 L89.6,60.8 Z M78.4,3.2 L84.8,3.2 C85.6835938,3.2 86.4,3.9164062 86.4,4.8 L86.4,11.2 L83.2,11.2 L83.2,6.4 L78.4,6.4 L78.4,3.2 Z M78.4,54.4 L83.2,54.4 L83.2,49.6 L86.4,49.6 L86.4,56 C86.4,56.8835938 85.6835938,57.6 84.8,57.6 L78.4,57.6 L78.4,54.4 Z M25.6,14.4 L64,14.4 L64,17.6 L25.6,17.6 L25.6,14.4 Z M11.2,57.6 L4.8,57.6 C3.9164062,57.6 3.2,56.8835938 3.2,56 L3.2,49.6 L6.4,49.6 L6.4,54.4 L11.2,54.4 L11.2,57.6 Z M11.2,6.4 L6.4,6.4 L6.4,11.2 L3.2,11.2 L3.2,4.8 C3.2,3.9164062 3.9164062,3.2 4.8,3.2 L11.2,3.2 L11.2,6.4 Z M16,27.2 L16,24 L73.6,24 L73.6,27.2 L16,27.2 Z" id="Shape"></path>
                        </g>
                    </g>
                </g>
            </g>
        </g>
    </g>
</svg>